<svg width="34" height="59" viewBox="0 0 34 59" fill="none" xmlns="http://www.w3.org/2000/svg">
<path d="M32.2166 1.28094C33.0368 2.10137 33.4975 3.21397 33.4975 4.37407C33.4975 5.53416 33.0368 6.64676 32.2166 7.46719L10.5603 29.1234L32.2166 50.7797C33.0135 51.6048 33.4545 52.71 33.4445 53.8571C33.4345 55.0042 32.9744 56.1015 32.1633 56.9127C31.3521 57.7238 30.2548 58.1839 29.1077 58.1939C27.9606 58.2039 26.8555 57.7629 26.0303 56.9659L1.28094 32.2166C0.460754 31.3961 0 30.2835 0 29.1234C0 27.9633 0.460754 26.8507 1.28094 26.0303L26.0303 1.28094C26.8507 0.460755 27.9633 0 29.1234 0C30.2835 0 31.3961 0.460755 32.2166 1.28094Z" fill="#737373"/>
</svg>
