<svg width="65" height="93" viewBox="0 0 65 93" fill="none" xmlns="http://www.w3.org/2000/svg">
<path fill-rule="evenodd" clip-rule="evenodd" d="M35.9821 78.864V93H29.0179V78.864C21.0471 78.0037 13.6751 74.2233 8.31877 68.2493C2.9624 62.2752 -0.000337305 54.5292 2.88031e-08 46.5V37.2H6.96429V46.5C6.96429 53.2829 9.65465 59.788 14.4435 64.5843C19.2324 69.3805 25.7275 72.075 32.5 72.075C39.2725 72.075 45.7676 69.3805 50.5565 64.5843C55.3454 59.788 58.0357 53.2829 58.0357 46.5V37.2H65V46.5C65.0003 54.5292 62.0376 62.2752 56.6812 68.2493C51.3249 74.2233 43.9529 78.0037 35.9821 78.864ZM13.9286 18.6C13.9286 13.667 15.8852 8.93599 19.368 5.44781C22.8508 1.95964 27.5746 0 32.5 0C37.4254 0 42.1492 1.95964 45.632 5.44781C49.1148 8.93599 51.0714 13.667 51.0714 18.6V46.5C51.0714 51.433 49.1148 56.164 45.632 59.6522C42.1492 63.1404 37.4254 65.1 32.5 65.1C27.5746 65.1 22.8508 63.1404 19.368 59.6522C15.8852 56.164 13.9286 51.433 13.9286 46.5V18.6Z" fill="#FFFEFD"/>
</svg>
