<svg width="88" height="88" viewBox="0 0 88 88" fill="none" xmlns="http://www.w3.org/2000/svg">
<path d="M4.0712 77.6598L6.69921 59.6626C6.8594 58.4864 7.39626 57.3924 8.23618 56.5492L59.1554 5.62356C59.8145 4.95573 60.635 4.46912 61.5376 4.2108C62.4402 3.95248 63.3942 3.9312 64.3075 4.14902C68.982 5.43962 73.2191 7.971 76.5686 11.4742C80.0664 14.8425 82.5833 19.0959 83.8508 23.7807C84.0689 24.6928 84.0476 25.6457 83.7889 26.5472C83.5303 27.4486 83.0431 28.2681 82.3744 28.9265L31.399 79.7872C30.5535 80.6239 29.4573 81.1615 28.2774 81.318L10.2624 83.9428C9.41139 84.0667 8.54312 83.9887 7.72799 83.7149C6.91286 83.441 6.17381 82.9792 5.57079 82.3668C4.96776 81.7544 4.51773 81.0087 4.25718 80.1901C3.99664 79.3716 3.93293 78.5032 4.0712 77.6554M49.5222 15.3097L72.7413 38.5002" stroke="#737373" stroke-width="7" stroke-linecap="round" stroke-linejoin="round"/>
</svg>
