<svg width="54" height="107" viewBox="0 0 54 107" fill="none" xmlns="http://www.w3.org/2000/svg">
<path d="M17.7422 80.1562C17.7422 82.8281 20.7188 85.5234 25.2422 86.1094L24.2109 88.2188C20.6133 87.6797 17.7539 85.9102 16.3828 83.5078C14.9883 85.9102 12.1406 87.6797 8.57812 88.2188L7.54688 86.1094C12.0234 85.5234 15 82.8281 15 80.1562V79.0781H17.7422V80.1562ZM26.0156 90.0469V92.2031H17.6016V99.5859H15.0234V92.2031H6.70312V90.0469H26.0156ZM45.1875 78.3984V90.9844H42.5859V85.8047H38.9766V83.6719H42.5859V78.3984H45.1875ZM38.0156 91.5234C42.5156 91.5234 45.2578 93 45.2578 95.5547C45.2578 98.1094 42.5156 99.5859 38.0156 99.5859C33.5391 99.5859 30.7969 98.1094 30.8203 95.5547C30.7969 93 33.5391 91.5234 38.0156 91.5234ZM38.0156 93.5156C35.0625 93.5156 33.3984 94.2188 33.3984 95.5547C33.3984 96.8672 35.0625 97.5703 38.0156 97.5703C40.9688 97.5703 42.6562 96.8672 42.6562 95.5547C42.6562 94.2188 40.9688 93.5156 38.0156 93.5156ZM35.2266 82.0312C35.2266 84.6094 36.9375 87.2109 40.2188 88.3125L38.9062 90.375C36.5508 89.5781 34.875 87.9609 33.9609 85.9688C33.0234 88.2305 31.2539 90.0352 28.7344 90.9375L27.375 88.875C30.7734 87.7031 32.5781 84.8438 32.5781 82.0547V81.8906H28.1719V79.7812H39.6094V81.8906H35.2266V82.0312Z" fill="#3C3C3C"/>
<path d="M50.9625 1.84228L52.4375 3.31728C54.47 5.35228 54.1625 8.95978 51.745 11.3748L21.3275 41.7923L11.4725 45.3973C10.235 45.8523 9.03 45.2623 8.785 44.0848C8.70247 43.6576 8.74145 43.2159 8.8975 42.8098L12.5725 32.8698L42.905 2.53478C45.3225 0.119775 48.93 -0.192725 50.9625 1.84228ZM20 4.86728C20.3283 4.86728 20.6534 4.93194 20.9567 5.05758C21.26 5.18321 21.5356 5.36736 21.7678 5.59951C21.9999 5.83165 22.1841 6.10725 22.3097 6.41057C22.4353 6.71388 22.5 7.03897 22.5 7.36728C22.5 7.69558 22.4353 8.02067 22.3097 8.32398C22.1841 8.6273 21.9999 8.9029 21.7678 9.13504C21.5356 9.36719 21.26 9.55134 20.9567 9.67697C20.6534 9.80261 20.3283 9.86728 20 9.86728H10C8.67392 9.86728 7.40215 10.3941 6.46447 11.3317C5.52678 12.2694 5 13.5412 5 14.8673V44.8673C5 46.1934 5.52678 47.4651 6.46447 48.4028C7.40215 49.3405 8.67392 49.8673 10 49.8673H40C41.3261 49.8673 42.5979 49.3405 43.5355 48.4028C44.4732 47.4651 45 46.1934 45 44.8673V34.8673C45 34.2042 45.2634 33.5683 45.7322 33.0995C46.2011 32.6307 46.837 32.3673 47.5 32.3673C48.163 32.3673 48.7989 32.6307 49.2678 33.0995C49.7366 33.5683 50 34.2042 50 34.8673V44.8673C50 47.5194 48.9464 50.063 47.0711 51.9383C45.1957 53.8137 42.6522 54.8673 40 54.8673H10C7.34783 54.8673 4.8043 53.8137 2.92893 51.9383C1.05357 50.063 0 47.5194 0 44.8673V14.8673C0 12.2151 1.05357 9.67157 2.92893 7.79621C4.8043 5.92084 7.34783 4.86728 10 4.86728H20Z" fill="#3C3C3C"/>
</svg>
