<svg width="34" height="59" viewBox="0 0 34 59" fill="none" xmlns="http://www.w3.org/2000/svg">
<path d="M1.28148 1.28094C0.461296 2.10137 0.000541687 3.21397 0.000541687 4.37407C0.000541687 5.53416 0.461296 6.64676 1.28148 7.46719L22.9377 29.1234L1.28148 50.7797C0.484539 51.6048 0.0435638 52.71 0.0535316 53.8571C0.0635033 55.0042 0.523613 56.1015 1.33477 56.9127C2.14594 57.7238 3.24324 58.1839 4.39035 58.1939C5.53746 58.2039 6.6426 57.7629 7.46773 56.9659L32.2171 32.2166C33.0373 31.3961 33.498 30.2835 33.498 29.1234C33.498 27.9633 33.0373 26.8507 32.2171 26.0303L7.46773 1.28094C6.6473 0.460755 5.5347 0 4.37461 0C3.21451 0 2.10192 0.460755 1.28148 1.28094Z" fill="#737373"/>
</svg>
