<svg width="19" height="25" viewBox="0 0 19 25" fill="none" xmlns="http://www.w3.org/2000/svg">
<path d="M9.5 13.3401C8.51042 13.3401 7.66927 12.9864 6.97656 12.279C6.28385 11.5716 5.9375 10.7125 5.9375 9.70192C5.9375 8.6913 6.28385 7.83228 6.97656 7.12485C7.66927 6.41742 8.51042 6.0637 9.5 6.0637C10.4896 6.0637 11.3307 6.41742 12.0234 7.12485C12.7161 7.83228 13.0625 8.6913 13.0625 9.70192C13.0625 10.7125 12.7161 11.5716 12.0234 12.279C11.3307 12.9864 10.4896 13.3401 9.5 13.3401ZM9.5 23.0421L3.94844 24.9218C3.5526 25.0633 3.19121 25.0128 2.86425 24.7702C2.53729 24.5277 2.37421 24.2043 2.375 23.8V16.0991C1.62292 15.2502 1.03906 14.28 0.623438 13.1885C0.207813 12.0971 0 10.9349 0 9.70192C0 6.99347 0.920312 4.69937 2.76094 2.81962C4.60156 0.939873 6.84792 0 9.5 0C12.1521 0 14.3984 0.939873 16.2391 2.81962C18.0797 4.69937 19 6.99347 19 9.70192C19 10.9349 18.7922 12.0971 18.3766 13.1885C17.9609 14.28 17.3771 15.2502 16.625 16.0991V23.8C16.625 24.2043 16.4615 24.5277 16.1346 24.7702C15.8076 25.0128 15.4466 25.0633 15.0516 24.9218L9.5 23.0421ZM9.5 16.9784C11.4792 16.9784 13.1615 16.2709 14.5469 14.8561C15.9323 13.4412 16.625 11.7232 16.625 9.70192C16.625 7.68069 15.9323 5.96264 14.5469 4.54778C13.1615 3.13291 11.4792 2.42548 9.5 2.42548C7.52083 2.42548 5.83854 3.13291 4.45312 4.54778C3.06771 5.96264 2.375 7.68069 2.375 9.70192C2.375 11.7232 3.06771 13.4412 4.45312 14.8561C5.83854 16.2709 7.52083 16.9784 9.5 16.9784ZM4.75 21.8596L9.5 20.6166L14.25 21.8596V18.1001C13.5573 18.5044 12.81 18.8229 12.008 19.0558C11.206 19.2886 10.37 19.4047 9.5 19.4038C8.62996 19.403 7.79356 19.2866 6.99081 19.0546C6.18806 18.8225 5.44112 18.5048 4.75 18.1014V21.8596Z" fill="#3C3C3C"/>
</svg>
