<svg width="20" height="25" viewBox="0 0 20 25" fill="none" xmlns="http://www.w3.org/2000/svg">
<path fill-rule="evenodd" clip-rule="evenodd" d="M4.27637 14.4732C4.27637 14.2114 4.38034 13.9604 4.5654 13.7754C4.75047 13.5903 5.00147 13.4863 5.2632 13.4863H14.4736C14.7353 13.4863 14.9863 13.5903 15.1714 13.7754C15.3565 13.9604 15.4604 14.2114 15.4604 14.4732C15.4604 14.7349 15.3565 14.9859 15.1714 15.171C14.9863 15.356 14.7353 15.46 14.4736 15.46H5.2632C5.00147 15.46 4.75047 15.356 4.5654 15.171C4.38034 14.9859 4.27637 14.7349 4.27637 14.4732ZM4.27637 18.4205C4.27637 18.1588 4.38034 17.9078 4.5654 17.7227C4.75047 17.5377 5.00147 17.4337 5.2632 17.4337H14.4736C14.7353 17.4337 14.9863 17.5377 15.1714 17.7227C15.3565 17.9078 15.4604 18.1588 15.4604 18.4205C15.4604 18.6823 15.3565 18.9333 15.1714 19.1183C14.9863 19.3034 14.7353 19.4074 14.4736 19.4074H5.2632C5.00147 19.4074 4.75047 19.3034 4.5654 19.1183C4.38034 18.9333 4.27637 18.6823 4.27637 18.4205Z" fill="#3C3C3C"/>
<path fill-rule="evenodd" clip-rule="evenodd" d="M0 2.63158C0 1.18158 1.18156 0 2.63154 0H11.4341C12.1735 0 12.8709 0.313158 13.3617 0.830263L13.3696 0.839474L19.0432 7.02632C19.5155 7.53026 19.7366 8.18947 19.7366 8.81579V22.3684C19.7366 23.8184 18.555 25 17.105 25H2.63154C1.18156 25 0 23.8184 0 22.3684V2.63158ZM11.4327 2.63158H2.63154V22.3684H17.105V8.80526L11.4525 2.64079L11.4485 2.63947L11.4327 2.63158Z" fill="#3C3C3C"/>
<path fill-rule="evenodd" clip-rule="evenodd" d="M11.4344 0C11.7834 0 12.1181 0.138627 12.3648 0.385386C12.6116 0.632144 12.7502 0.96682 12.7502 1.31579V7.5H18.4212C18.594 7.5 18.7651 7.53403 18.9247 7.60016C19.0843 7.66628 19.2294 7.7632 19.3516 7.88539C19.4737 8.00757 19.5707 8.15262 19.6368 8.31226C19.7029 8.4719 19.7369 8.643 19.7369 8.81579C19.7369 8.98858 19.7029 9.15968 19.6368 9.31932C19.5707 9.47896 19.4737 9.62401 19.3516 9.74619C19.2294 9.86838 19.0843 9.9653 18.9247 10.0314C18.7651 10.0975 18.594 10.1316 18.4212 10.1316H11.4344C11.0855 10.1316 10.7508 9.99295 10.504 9.74619C10.2573 9.49943 10.1187 9.16476 10.1187 8.81579V1.31579C10.1187 0.96682 10.2573 0.632144 10.504 0.385386C10.7508 0.138627 11.0855 0 11.4344 0Z" fill="#3C3C3C"/>
</svg>
