<svg width="29" height="25" viewBox="0 0 29 25" fill="none" xmlns="http://www.w3.org/2000/svg">
<path d="M1.39569 25C1.13667 25 0.90121 24.9365 0.689291 24.8097C0.477373 24.6828 0.312548 24.5148 0.194816 24.3055C0.0770832 24.0963 0.0125659 23.8703 0.00126361 23.6277C-0.0100387 23.3851 0.0544786 23.1481 0.194816 22.9166L13.2631 0.694443C13.4044 0.462962 13.5871 0.289351 13.8113 0.173611C14.0354 0.0578703 14.2648 0 14.4993 0C14.7338 0 14.9636 0.0578703 15.1887 0.173611C15.4138 0.289351 15.5961 0.462962 15.7355 0.694443L28.8038 22.9166C28.9451 23.1481 29.01 23.3856 28.9987 23.6291C28.9874 23.8726 28.9225 24.0981 28.8038 24.3055C28.6851 24.5129 28.5203 24.681 28.3093 24.8097C28.0983 24.9384 27.8629 25.0018 27.6029 25H1.39569ZM14.4993 20.8333C14.8996 20.8333 15.2354 20.7 15.5066 20.4333C15.7779 20.1666 15.913 19.837 15.9121 19.4444C15.9111 19.0518 15.7755 18.7222 15.5052 18.4555C15.2349 18.1889 14.8996 18.0555 14.4993 18.0555C14.099 18.0555 13.7637 18.1889 13.4934 18.4555C13.2231 18.7222 13.0875 19.0518 13.0865 19.4444C13.0856 19.837 13.2212 20.1671 13.4934 20.4347C13.7656 20.7023 14.1009 20.8352 14.4993 20.8333ZM14.4993 16.6666C14.8996 16.6666 15.2354 16.5333 15.5066 16.2666C15.7779 16 15.913 15.6703 15.9121 15.2778V11.1111C15.9121 10.7176 15.7765 10.3879 15.5052 10.1222C15.2339 9.85647 14.8986 9.72313 14.4993 9.72221C14.0999 9.72128 13.7646 9.85461 13.4934 10.1222C13.2221 10.3898 13.0865 10.7194 13.0865 11.1111V15.2778C13.0865 15.6713 13.2221 16.0014 13.4934 16.268C13.7646 16.5347 14.0999 16.6676 14.4993 16.6666Z" fill="#FF0000"/>
</svg>
