<svg width="16" height="16" viewBox="0 0 16 16" fill="none" xmlns="http://www.w3.org/2000/svg">
<path d="M15.2132 3.09182L10.1624 8.14258L15.2132 13.1933C15.4811 13.4613 15.6316 13.8246 15.6316 14.2035C15.6316 14.5824 15.4811 14.9457 15.2132 15.2136C14.9453 15.4816 14.5819 15.6321 14.2031 15.6321C13.8242 15.6321 13.4608 15.4816 13.1929 15.2136L8.14214 10.1629L3.09137 15.2136C2.82346 15.4816 2.4601 15.6321 2.08122 15.6321C1.70234 15.6321 1.33898 15.4816 1.07107 15.2136C0.803159 14.9457 0.65265 14.5824 0.65265 14.2035C0.65265 13.8246 0.803159 13.4613 1.07107 13.1933L6.12183 8.14258L1.07107 3.09182C0.803158 2.82391 0.652649 2.46054 0.652649 2.08166C0.652649 1.70278 0.803159 1.33942 1.07107 1.07151C1.33898 0.803601 1.70234 0.653091 2.08122 0.653091C2.4601 0.653091 2.82346 0.803601 3.09137 1.07151L8.14214 6.12227L13.1929 1.07151C13.4608 0.803601 13.8242 0.653091 14.2031 0.653091C14.5819 0.653092 14.9453 0.803602 15.2132 1.07151C15.4811 1.33942 15.6316 1.70278 15.6316 2.08166C15.6316 2.46054 15.4811 2.82391 15.2132 3.09182Z" fill="#3C3C3C"/>
</svg>
