<svg width="23" height="22" viewBox="0 0 23 22" fill="none" xmlns="http://www.w3.org/2000/svg">
<path d="M8.5064 16.2731C6.12897 16.2731 4.1171 15.4853 2.47078 13.9098C0.824467 12.3342 0.000873144 10.4098 6.92422e-07 8.13656C-0.000871759 5.86333 0.822722 3.93893 2.47078 2.36336C4.11884 0.787786 6.13072 0 8.5064 0C10.8821 0 12.8944 0.787786 14.5433 2.36336C16.1923 3.93893 17.0154 5.86333 17.0128 8.13656C17.0128 9.05453 16.8601 9.92034 16.5548 10.734C16.2494 11.5477 15.835 12.2674 15.3115 12.8933L22.6401 19.9033C22.88 20.1328 23 20.4248 23 20.7795C23 21.1342 22.88 21.4263 22.6401 21.6558C22.4002 21.8853 22.0948 22 21.724 22C21.3532 22 21.0479 21.8853 20.808 21.6558L13.4794 14.6458C12.825 15.1465 12.0725 15.5429 11.2219 15.835C10.3713 16.1271 9.4661 16.2731 8.5064 16.2731ZM8.5064 13.7696C10.1422 13.7696 11.5329 13.2221 12.6785 12.1272C13.824 11.0323 14.3963 9.70211 14.3954 8.13656C14.3946 6.571 13.8222 5.24119 12.6785 4.14714C11.5347 3.05309 10.144 2.50522 8.5064 2.50356C6.86881 2.50189 5.47856 3.04975 4.33565 4.14714C3.19274 5.24453 2.61997 6.57434 2.61735 8.13656C2.61474 9.69878 3.1875 11.029 4.33565 12.1272C5.48379 13.2255 6.87405 13.7729 8.5064 13.7696Z" fill="#3C3C3C"/>
</svg>
